<svg width="521" height="157" viewBox="0 0 521 157" fill="none" xmlns="http://www.w3.org/2000/svg">
<path d="M481.729 110.174C470.196 110.174 464.082 103.518 464.082 96.5515C464.082 96.3193 464.237 96.1645 464.469 96.1645H473.37C473.602 96.1645 473.757 96.3193 473.757 96.5515C473.757 99.0283 476.156 101.66 481.729 101.66C484.98 101.66 489.624 101.041 489.624 97.2481C489.624 93.8425 484.902 93.8425 481.729 93.5329C473.757 92.7589 464.778 91.2883 464.778 81.5359C464.778 74.8795 471.28 69.4615 480.955 69.4615C490.785 69.4615 497.906 74.1055 497.906 83.0839C497.906 83.3161 497.828 83.4709 497.596 83.4709H488.927C488.695 83.4709 488.54 83.3161 488.54 83.0839C488.54 80.9167 486.605 77.9755 480.955 77.9755C476.311 77.9755 474.066 79.5235 474.066 81.5359C474.066 84.0127 477.395 84.4771 480.955 84.9415C487.766 85.7929 498.912 86.2573 498.912 97.2481C498.912 105.53 492.255 110.174 481.729 110.174Z" fill="black"/>
<path d="M442.273 110.174C430.741 110.174 424.626 103.518 424.626 96.5515C424.626 96.3193 424.781 96.1645 425.013 96.1645H433.914C434.146 96.1645 434.301 96.3193 434.301 96.5515C434.301 99.0283 436.7 101.66 442.273 101.66C445.524 101.66 450.168 101.041 450.168 97.2481C450.168 93.8425 445.447 93.8425 442.273 93.5329C434.301 92.7589 425.323 91.2883 425.323 81.5359C425.323 74.8795 431.824 69.4615 441.499 69.4615C451.329 69.4615 458.45 74.1055 458.45 83.0839C458.45 83.3161 458.372 83.4709 458.14 83.4709H449.471C449.239 83.4709 449.084 83.3161 449.084 83.0839C449.084 80.9167 447.149 77.9755 441.499 77.9755C436.855 77.9755 434.611 79.5235 434.611 81.5359C434.611 84.0127 437.939 84.4771 441.499 84.9415C448.31 85.7929 459.456 86.2573 459.456 97.2481C459.456 105.53 452.8 110.174 442.273 110.174Z" fill="black"/>
<path d="M401.264 110.174C389.964 110.174 382.379 101.892 382.379 89.8177C382.379 77.6659 389.964 69.4615 401.264 69.4615C412.565 69.4615 420.15 77.7433 420.15 89.8177C420.15 91.3657 419.918 92.3719 419.763 92.9911C419.686 93.2233 419.608 93.3781 419.376 93.3781H392.441C392.209 93.3781 392.054 93.5329 392.054 93.7651C392.054 98.0221 395.769 101.66 401.264 101.66C404.67 101.66 407.456 100.809 408.772 98.1769C408.85 98.0221 409.004 97.7899 409.391 97.7899H418.447C418.679 97.7899 418.912 97.9447 418.834 98.2543C416.977 105.685 410.088 110.174 401.264 110.174ZM409.933 85.6381C410.165 85.6381 410.243 85.5607 410.243 85.3285C410.243 82.2325 407.611 77.9755 401.264 77.9755C394.995 77.9755 392.054 82.3099 392.054 85.3285C392.054 85.5607 392.131 85.6381 392.363 85.6381H409.933Z" fill="black"/>
<path d="M366.269 109.4C366.037 109.4 365.882 109.245 365.882 109.013V55.2973C365.882 55.0651 366.037 54.9103 366.269 54.9103H374.783C375.015 54.9103 375.17 55.0651 375.17 55.2973V109.013C375.17 109.245 375.015 109.4 374.783 109.4H366.269Z" fill="black"/>
<path d="M352.441 109.4C344.314 109.4 340.908 106.227 340.908 98.4865V78.7495C340.908 78.5173 340.753 78.3625 340.521 78.3625H334.174C333.942 78.3625 333.787 78.2077 333.787 77.9755V70.6225C333.787 70.3903 333.942 70.2355 334.174 70.2355H340.521C340.753 70.2355 340.908 70.0807 340.908 69.8485V59.3995C340.908 59.1673 341.063 59.0125 341.295 59.0125H349.809C350.041 59.0125 350.196 59.1673 350.196 59.3995V69.8485C350.196 70.0807 350.351 70.2355 350.583 70.2355H358.478C358.71 70.2355 358.865 70.3903 358.865 70.6225V77.9755C358.865 78.2077 358.71 78.3625 358.478 78.3625H350.583C350.351 78.3625 350.196 78.5173 350.196 78.7495V98.4091C350.196 99.9571 351.435 100.886 352.983 100.886H358.478C358.71 100.886 358.865 101.041 358.865 101.273V109.013C358.865 109.245 358.71 109.4 358.478 109.4H352.441Z" fill="black"/>
<path d="M320.464 109.4C320.231 109.4 320.077 109.245 320.077 109.013V70.6225C320.077 70.3903 320.231 70.2355 320.464 70.2355H328.978C329.21 70.2355 329.365 70.3903 329.365 70.6225V109.013C329.365 109.245 329.21 109.4 328.978 109.4H320.464ZM320.077 65.1271C319.844 65.1271 319.69 64.9723 319.69 64.7401V55.2973C319.69 55.0651 319.844 54.9103 320.077 54.9103H329.365C329.597 54.9103 329.752 55.0651 329.752 55.2973V64.7401C329.752 64.9723 329.597 65.1271 329.365 65.1271H320.077Z" fill="black"/>
<path d="M255.762 109.4C255.53 109.4 255.375 109.245 255.375 109.013V70.6225C255.375 70.3903 255.53 70.2355 255.762 70.2355H263.115C263.579 70.2355 263.734 70.3129 263.889 70.7773L264.663 73.0219C264.818 73.4089 265.127 73.4089 265.36 73.1767C266.985 71.5513 271.165 69.4615 274.725 69.4615C279.292 69.4615 282.697 71.3191 284.71 74.0281C284.864 74.2603 285.174 74.2603 285.406 74.0281C287.651 71.7061 290.747 69.4615 295.7 69.4615C305.453 69.4615 311.258 75.0343 311.258 87.1087V109.013C311.258 109.245 311.103 109.4 310.871 109.4H302.357C302.125 109.4 301.97 109.245 301.97 109.013V87.5731C301.97 82.9291 300.267 77.9755 294.926 77.9755C289.663 77.9755 287.96 82.1551 287.96 87.5731V109.013C287.96 109.245 287.806 109.4 287.573 109.4H279.059C278.827 109.4 278.672 109.245 278.672 109.013V87.5731C278.672 82.9291 276.97 77.9755 271.629 77.9755C266.366 77.9755 264.663 82.1551 264.663 87.5731V109.013C264.663 109.245 264.508 109.4 264.276 109.4H255.762Z" fill="black"/>
<path d="M236.866 109.4C236.633 109.4 236.479 109.245 236.479 109.013V70.6225C236.479 70.3903 236.633 70.2355 236.866 70.2355H245.38C245.612 70.2355 245.767 70.3903 245.767 70.6225V109.013C245.767 109.245 245.612 109.4 245.38 109.4H236.866ZM236.479 65.1271C236.246 65.1271 236.092 64.9723 236.092 64.7401V55.2973C236.092 55.0651 236.246 54.9103 236.479 54.9103H245.767C245.999 54.9103 246.154 55.0651 246.154 55.2973V64.7401C246.154 64.9723 245.999 65.1271 245.767 65.1271H236.479Z" fill="black"/>
<path d="M194.993 109.4C194.761 109.4 194.606 109.245 194.606 109.013V55.2973C194.606 55.0651 194.761 54.9103 194.993 54.9103H203.507C203.739 54.9103 203.894 55.0651 203.894 55.2973V100.576C203.894 100.809 203.971 100.886 204.203 100.886H230.519C230.752 100.886 230.906 101.041 230.906 101.273V109.013C230.906 109.245 230.752 109.4 230.519 109.4H194.993Z" fill="black"/>
<path d="M90.4594 77.7105L106.713 44.4285L112.054 47.0601L93.865 85.2183L144.562 68.4999L146.42 74.1501L107.333 85.9923L166.853 82.4319L167.24 88.3143L99.67 91.6425L137.132 103.253L135.119 108.903L90.4594 94.3515L90.2272 133.98H84.19L84.4996 93.3453L15.4588 97.2927L15.0718 91.4103L72.58 88.0047L47.812 80.1873L49.747 74.5371L84.4996 85.8375L84.8092 23.4531L90.6916 23.5305L90.4594 77.7105Z" fill="black"/>
</svg>
