<svg width="480" height="480" viewBox="0 0 480 480" fill="none" xmlns="http://www.w3.org/2000/svg">
<g clip-path="url(#clip0_7072_35050)">
<path d="M452.069 198.507H373.477L479.365 90.4228L479.996 89.7783L441.397 51.125H336.389V27.5961C336.389 12.3739 324.025 -0.00390625 308.831 -0.00390625H196.159C180.961 -0.00390625 168.601 12.3783 168.601 27.5961V226.281H27.9269C12.7328 226.281 0.368745 238.663 0.368745 253.885C0.368745 269.107 12.7328 281.485 27.9269 281.485H106.519L0.630866 389.534L0 390.174L38.5894 428.827H143.602V452.396C143.602 467.618 155.966 479.996 171.16 479.996H283.832C299.026 479.996 311.39 467.614 311.39 452.396V253.707H452.064C467.263 253.707 479.622 241.325 479.622 226.107C479.622 210.889 467.258 198.507 452.064 198.507H452.069ZM299.919 452.401C299.919 461.285 292.699 468.512 283.832 468.512C274.964 468.512 267.745 461.285 267.745 452.401V294.325L151.572 412.889L128.821 390.107L246.531 270.005H140.594C131.727 270.005 124.507 262.778 124.507 253.894C124.507 245.009 131.727 237.778 140.594 237.778H276.15C289.256 237.778 299.914 248.454 299.914 261.578V452.401H299.919ZM452.069 242.223H316.508C303.406 242.223 292.748 231.547 292.748 218.423V27.6005C292.748 18.7161 299.968 11.4894 308.835 11.4894C317.703 11.4894 324.927 18.7161 324.927 27.6005V185.676L441.095 67.0672L463.846 89.8494L346.136 209.996H452.073C460.941 209.996 468.16 217.223 468.16 226.107C468.16 234.992 460.941 242.218 452.073 242.218L452.069 242.223Z" fill="black"/>
</g>
<defs>
<clipPath id="clip0_7072_35050">
<rect width="480" height="480" fill="white"/>
</clipPath>
</defs>
</svg>
