<svg width="1600" height="422" viewBox="0 0 1600 422" fill="none" xmlns="http://www.w3.org/2000/svg">
<path d="M421.922 121.516V315.568H544.842V278.418H463.452V121.516H421.922Z" fill="black"/>
<path d="M582.771 150.624C596.891 150.624 606.581 140.921 606.581 127.062C606.581 113.203 597.171 104.051 582.771 104.051C568.371 104.051 558.961 113.474 558.961 127.062C558.961 140.65 569.201 150.624 582.771 150.624ZM563.121 167.807V315.566H602.431V167.807H563.121Z" fill="black"/>
<path d="M806.193 224.632V315.565H845.783V219.645C845.783 184.157 825.573 164.48 789.583 164.48C771.313 164.48 755.533 172.241 745.563 184.998C736.153 172.241 721.473 164.48 704.313 164.48C688.813 164.48 675.523 171.129 666.383 181.664V167.805H630.113V315.565H669.423V224.632C669.423 207.999 678.563 198.016 693.783 198.016C709.003 198.016 718.143 207.999 718.143 224.632V315.565H757.453V223.25C757.453 207.449 766.593 198.026 781.813 198.026C797.033 198.026 806.173 208.009 806.173 224.642L806.193 224.632Z" fill="black"/>
<path d="M891.744 150.624C905.864 150.624 915.554 140.921 915.554 127.062C915.554 113.203 906.144 104.051 891.744 104.051C877.344 104.051 867.934 113.474 867.934 127.062C867.934 140.65 878.174 150.624 891.744 150.624ZM872.084 167.807V315.566H911.394V167.807H872.084Z" fill="black"/>
<path d="M997.222 315.565H1029.33V282.57H1005.52C997.772 282.57 993.342 278.134 993.342 270.374V199.959H1029.33V167.805H993.342V122.895H955.132V167.805H928.832V199.959H954.582V272.867C954.582 300.585 969.532 315.555 997.212 315.555L997.222 315.565Z" fill="black"/>
<path d="M1089.4 121.516H1050.09V315.568H1089.4V121.516Z" fill="black"/>
<path d="M1209.84 224.632H1148.66C1149.49 208.28 1161.4 197.745 1179.11 197.745C1196.82 197.745 1209.01 208.28 1209.84 224.632ZM1181.6 318.889C1217.87 318.889 1246.38 297.821 1248.6 267.6H1210.39C1208.18 278.965 1197.65 285.624 1182.43 285.624C1162.22 285.624 1148.93 274.539 1148.38 253.19H1250.54V238.5C1250.54 193.59 1224.24 164.48 1179.67 164.48C1135.1 164.48 1109.07 195.803 1109.07 240.994C1109.07 286.185 1135.37 318.889 1181.6 318.889Z" fill="black"/>
<path d="M1328.88 318.889C1368.19 318.889 1391.72 301.145 1391.72 271.205C1391.72 249.305 1378.15 234.886 1349.92 228.517L1323.62 222.699C1308.39 219.375 1303.96 216.601 1303.96 209.391C1303.96 201.35 1311.43 197.195 1325.28 197.195C1341.06 197.195 1350.2 203.844 1351.03 216.05H1390.07V214.939C1390.07 184.718 1364.88 164.48 1326.95 164.48C1289.02 164.48 1265.77 182.224 1265.77 209.391C1265.77 231.841 1278.23 245.71 1305.08 252.64L1332.76 259.018C1349.37 263.454 1353.52 265.667 1353.52 273.438C1353.52 281.208 1344.94 286.195 1329.43 286.195C1312.54 286.195 1303.13 279.816 1302.02 267.62H1263.26C1263.26 299.222 1288.45 318.909 1328.87 318.909L1328.88 318.889Z" fill="black"/>
<path d="M1469.24 318.889C1508.55 318.889 1532.08 301.145 1532.08 271.205C1532.08 249.305 1518.51 234.886 1490.28 228.517L1463.98 222.699C1448.75 219.375 1444.32 216.601 1444.32 209.391C1444.32 201.35 1451.79 197.195 1465.64 197.195C1481.42 197.195 1490.56 203.844 1491.39 216.05H1530.43V214.939C1530.43 184.718 1505.24 164.48 1467.31 164.48C1429.38 164.48 1406.13 182.224 1406.13 209.391C1406.13 231.841 1418.59 245.71 1445.44 252.64L1473.12 259.018C1489.73 263.454 1493.88 265.667 1493.88 273.438C1493.88 281.208 1485.3 286.195 1469.79 286.195C1452.9 286.195 1443.49 279.816 1442.38 267.62H1403.62C1403.62 299.222 1428.81 318.909 1469.23 318.909L1469.24 318.889Z" fill="black"/>
<path d="M337.699 186.21H290.729L354.009 121.632L354.389 121.252L331.319 98.1606H268.569V84.1017C268.569 75.0094 261.179 67.6094 252.099 67.6094H184.769C175.689 67.6094 168.299 75.0094 168.299 84.1017V202.812H84.2291C75.1491 202.812 67.7591 210.212 67.7591 219.304C67.7591 228.397 75.1491 235.797 84.2291 235.797H131.199L67.9191 300.354L67.5391 300.734L90.5991 323.825H153.359V337.914C153.359 347.007 160.749 354.407 169.829 354.407H237.159C246.239 354.407 253.629 347.007 253.629 337.914V219.194H337.699C346.779 219.194 354.169 211.794 354.169 202.702C354.169 193.61 346.779 186.21 337.699 186.21ZM246.769 337.904C246.769 343.212 242.459 347.527 237.159 347.527C231.859 347.527 227.549 343.212 227.549 337.904V243.457L158.119 314.303L144.519 300.694L214.869 228.937H151.559C146.259 228.937 141.949 224.621 141.949 219.314C141.949 214.007 146.259 209.681 151.559 209.681H232.569C240.399 209.681 246.769 216.06 246.769 223.9V337.914V337.904ZM337.699 212.325H256.689C248.859 212.325 242.489 205.946 242.489 198.106V84.0916C242.489 78.7845 246.799 74.4686 252.099 74.4686C257.399 74.4686 261.719 78.7845 261.719 84.0916V178.539L331.139 107.673L344.739 121.282L274.389 193.069H337.699C342.999 193.069 347.309 197.385 347.309 202.692C347.309 207.999 342.999 212.315 337.699 212.315V212.325Z" fill="black"/>
</svg>
